<?xml version="1.0" encoding="UTF-8" standalone="no"?>
<!-- Created with Inkscape (http://www.inkscape.org/) -->

<svg
   width="44.934814mm"
   height="60.931637mm"
   viewBox="0 0 44.934814 60.931637"
   version="1.1"
   id="svg1"
   xmlns="http://www.w3.org/2000/svg"
   xmlns:svg="http://www.w3.org/2000/svg">
  <defs
     id="defs1">
    <linearGradient
       id="linearGradient4">
      <stop
         style="stop-color:#000000;stop-opacity:1;"
         offset="0"
         id="stop5" />
      <stop
         style="stop-color:#000000;stop-opacity:0;"
         offset="1"
         id="stop6" />
    </linearGradient>
  </defs>
  <g
     id="layer1"
     transform="translate(-61.223581,-97.653134)">
    <g
       id="g12"
       style="fill:#576a94;fill-opacity:1">
      <path
         id="path17"
         style="fill:#e9e9ff;fill-rule:evenodd;stroke:none;stroke-linejoin:round"
         d="m 152.38289,212.72145 14.99908,-5.50075 v 46.65414 l -14.99908,-1.091 z"
         points="167.38197,207.2207 167.38197,253.87484 152.38289,252.78384 152.38289,212.72145 " />
      <path
         id="path12"
         style="fill:#353564;fill-rule:evenodd;stroke:none;stroke-linejoin:round"
         d="m 122.44716,204.30007 v 50.15403 l 29.93573,-1.67026 v -40.06239 z"
         points="122.44716,254.4541 152.38289,252.78384 152.38289,212.72145 122.44716,204.30007 " />
      <path
         id="path16"
         style="fill:#afafde;fill-rule:evenodd;stroke:none;stroke-linejoin:round"
         d="m 122.44716,254.4541 13.15634,1.7838 31.77847,-2.36306 -14.99908,-1.091 z"
         points="135.6035,256.2379 167.38197,253.87484 152.38289,252.78384 122.44716,254.4541 " />
      <path
         id="path13"
         style="fill:#4d4d9f;fill-rule:evenodd;stroke:none;stroke-linejoin:round"
         d="m 122.44716,204.30007 13.15634,-8.9938 31.77847,11.91443 -14.99908,5.50075 z"
         points="135.6035,195.30627 167.38197,207.2207 152.38289,212.72145 122.44716,204.30007 " />
      <path
         id="path15"
         style="fill:#d7d7ff;fill-rule:evenodd;stroke:none;stroke-linejoin:round"
         d="m 135.6035,195.30627 v 60.93163 l 31.77847,-2.36306 V 207.2207 Z"
         points="135.6035,256.2379 167.38197,253.87484 167.38197,207.2207 135.6035,195.30627 " />
      <path
         id="path14"
         style="fill:#8686bf;fill-rule:evenodd;stroke:none;stroke-linejoin:round"
         d="m 122.44716,204.30007 13.15634,-8.9938 v 60.93163 l -13.15634,-1.7838 z"
         points="135.6035,195.30627 135.6035,256.2379 122.44716,254.4541 122.44716,204.30007 " />
    </g>
  </g>
</svg>
